<?xml version="1.0" encoding="utf-8"?>
<!-- Generator: Adobe Illustrator 16.0.0, SVG Export Plug-In . SVG Version: 6.00 Build 0)  -->
<!DOCTYPE svg PUBLIC "-//W3C//DTD SVG 1.1//EN" "http://www.w3.org/Graphics/SVG/1.1/DTD/svg11.dtd">
<svg version="1.1" id="Layer_1" xmlns="http://www.w3.org/2000/svg" xmlns:xlink="http://www.w3.org/1999/xlink" x="0px" y="0px"
	 width="245.498px" height="41.232px" viewBox="0 0 245.498 41.232" enable-background="new 0 0 245.498 41.232"
	 xml:space="preserve">
<g>
	<path fill="#EFEFEF" d="M0.563,38.74V1.924H8.72c3.849,0,6.564,0.788,8.146,2.362c1.582,1.576,2.373,4.294,2.373,8.157v14.463
		c0,4.04-0.805,7.023-2.414,8.947c-1.609,1.925-4.325,2.887-8.146,2.887H0.563z M5.823,34.795H8.72c0.863,0,1.603-0.078,2.219-0.235
		c0.616-0.158,1.116-0.445,1.5-0.863c0.383-0.418,0.685-0.814,0.904-1.191c0.219-0.377,0.373-0.962,0.462-1.757
		c0.089-0.794,0.14-1.448,0.154-1.962s0.021-1.312,0.021-2.394c0-0.356,0-0.623,0-0.801V13.758c0-0.671-0.003-1.205-0.01-1.603
		s-0.027-0.866-0.062-1.408c-0.034-0.541-0.085-0.969-0.154-1.284c-0.069-0.315-0.165-0.668-0.288-1.058
		c-0.123-0.391-0.277-0.695-0.462-0.915c-0.185-0.219-0.411-0.448-0.678-0.688s-0.575-0.418-0.924-0.534s-0.757-0.212-1.223-0.288
		S9.192,5.868,8.617,5.868H5.823V34.795z"/>
	<path fill="#EFEFEF" d="M20.882,38.74l7.889-36.816h5.26L41.92,38.74h-5.259l-1.973-9.204h-6.574l-1.972,9.204H20.882z
		 M28.771,25.591h5.26l-2.63-15.778L28.771,25.591z"/>
	<path fill="#EFEFEF" d="M48.515,38.74V26.906L40.626,1.924h5.259l5.26,18.408l5.259-18.408h5.26l-7.89,24.982V38.74H48.515z"/>
	<path fill="#EFEFEF" d="M69.738,38.74L61.849,1.924h5.259l3.883,19.723l1.356,9.204l1.397-9.204l3.883-19.723h5.26L74.998,38.74
		H69.738z"/>
	<path fill="#EFEFEF" d="M95.357,39.109c-3.314,0-5.845-0.972-7.591-2.917c-1.746-1.944-2.722-4.602-2.928-7.972l5.26-1.314
		c0.26,5.26,2.013,7.889,5.259,7.889c2.63,0,3.945-1.314,3.945-3.944c0-0.78-0.106-1.503-0.318-2.167
		c-0.213-0.664-0.538-1.274-0.976-1.829c-0.438-0.555-0.835-0.999-1.191-1.335c-0.356-0.335-0.842-0.75-1.459-1.243l-6.574-5.259
		c-1.206-0.945-2.167-2.147-2.887-3.605c-0.719-1.459-1.079-3.12-1.079-4.982c0-2.712,0.842-4.869,2.527-6.472
		c1.685-1.603,3.917-2.404,6.697-2.404c2.986,0,5.359,0.729,7.119,2.188c1.76,1.459,2.845,3.524,3.256,6.194
		c0.041,0.288,0.089,0.685,0.144,1.192l-5.259,1.315c-0.014-0.233-0.048-0.582-0.103-1.048c-0.233-1.671-0.757-3.01-1.571-4.017
		c-0.815-1.007-2.01-1.51-3.585-1.51c-1.26,0-2.232,0.353-2.917,1.058c-0.685,0.706-1.027,1.688-1.027,2.948
		c0,2.068,0.876,3.801,2.63,5.198l6.574,5.26c3.506,2.835,5.259,6.225,5.259,10.17c0,2.698-0.832,4.807-2.496,6.327
		S98.165,39.109,95.357,39.109z"/>
	<path fill="#EFEFEF" d="M117.896,39.109c-1.849,0-3.435-0.28-4.756-0.842s-2.373-1.384-3.153-2.466
		c-0.781-1.081-1.35-2.353-1.706-3.811c-0.356-1.459-0.534-3.154-0.534-5.085V13.552c0-1.931,0.178-3.616,0.534-5.054
		s0.925-2.688,1.706-3.75c0.78-1.061,1.832-1.859,3.153-2.394s2.907-0.801,4.756-0.801c3.588,0,6.177,1.027,7.766,3.082
		c1.588,2.054,2.383,5.027,2.383,8.917v13.354c0,1.903-0.182,3.585-0.544,5.044c-0.363,1.458-0.935,2.732-1.715,3.821
		s-1.832,1.918-3.154,2.485C121.309,38.825,119.73,39.109,117.896,39.109z M114.064,33.131c0.705,1.109,1.982,1.664,3.832,1.664
		s3.126-0.555,3.832-1.664c0.705-1.109,1.058-2.745,1.058-4.91V12.237c0-2.137-0.349-3.732-1.048-4.787
		c-0.699-1.054-1.979-1.582-3.842-1.582c-1.863,0-3.144,0.528-3.842,1.582c-0.699,1.055-1.048,2.65-1.048,4.787v15.983
		C113.006,30.386,113.358,32.021,114.064,33.131z"/>
	<path fill="#EFEFEF" d="M132.646,38.74V1.924h3.944l9.204,22.764V1.924h5.26V38.74h-3.739l-9.409-24.49v24.49H132.646z"/>
	<path fill="#F04D3B" d="M164.861,38.74V1.924h5.26v32.871h9.204v3.945H164.861z"/>
	<path fill="#F04D3B" d="M182.016,38.74V1.924h5.26V38.74H182.016z"/>
	<path fill="#F04D3B" d="M192.904,38.74V1.924h7.272l5.219,28.188l5.219-28.188h7.272V38.74h-5.26V9.689l-5.259,29.051h-3.945
		l-5.259-29.051V38.74H192.904z"/>
	<path fill="#F04D3B" d="M220.846,38.74l7.889-36.816h5.26l7.89,36.816h-5.26l-1.973-9.204h-6.574l-1.973,9.204H220.846z
		 M228.734,25.591h5.26l-2.63-15.778L228.734,25.591z"/>
</g>
</svg>
